<?xml version="1.0" encoding="utf-8"?>
<!-- Generator: Adobe Illustrator 16.0.4, SVG Export Plug-In . SVG Version: 6.00 Build 0)  -->
<!DOCTYPE svg PUBLIC "-//W3C//DTD SVG 1.1//EN" "http://www.w3.org/Graphics/SVG/1.1/DTD/svg11.dtd">
<svg version="1.1" id="Layer_1" xmlns="http://www.w3.org/2000/svg" xmlns:xlink="http://www.w3.org/1999/xlink" x="0px" y="0px"
	 width="31.438px" height="23.062px" viewBox="0 0 31.438 23.062" enable-background="new 0 0 31.438 23.062" xml:space="preserve">
<g>
	<g>
		<path fill="#FFFFFF" d="M29.719,23h-28c-0.829,0-1.5-0.672-1.5-1.5S0.89,20,1.719,20h28c0.828,0,1.5,0.672,1.5,1.5
			S30.547,23,29.719,23z"/>
	</g>
	<g>
		<path fill="#FFFFFF" d="M29.719,13h-28c-0.829,0-1.5-0.672-1.5-1.5S0.89,10,1.719,10h28c0.828,0,1.5,0.671,1.5,1.5
			S30.547,13,29.719,13z"/>
	</g>
	<g>
		<path fill="#FFFFFF" d="M29.719,3h-28c-0.829,0-1.5-0.671-1.5-1.5S0.89,0,1.719,0h28c0.828,0,1.5,0.671,1.5,1.5S30.547,3,29.719,3
			z"/>
	</g>
</g>
</svg>
