<?xml version="1.0" encoding="utf-8"?>
<!-- Generator: Adobe Illustrator 19.0.0, SVG Export Plug-In . SVG Version: 6.00 Build 0)  -->
<svg version="1.1" id="Layer_1" xmlns="http://www.w3.org/2000/svg" xmlns:xlink="http://www.w3.org/1999/xlink" x="0px" y="0px"
	 viewBox="0 0 129.1 39" style="enable-background:new 0 0 129.1 39;" xml:space="preserve">
<style type="text/css">
	.st0{fill:#FFFFFF;}
	.st1{fill:#0F0F0F;}
</style>
<g id="XMLID_2422_">
	<path id="XMLID_2475_" class="st0" d="M126.3,39H2.9c-1.4,0-2.5-1.1-2.5-2.5v-34C0.4,1.1,1.5,0,2.9,0h123.4c1.4,0,2.5,1.1,2.5,2.5
		v34C128.8,37.9,127.6,39,126.3,39z"/>
	<g id="XMLID_2424_">
		<g id="XMLID_2472_">
			<polygon id="XMLID_2473_" class="st1" points="25.6,33.4 12.7,33.4 12.7,8.3 31.1,8.3 31.1,27.8 30.1,27.8 30.1,9.4 13.8,9.4 
				13.8,32.3 25.6,32.3 			"/>
		</g>
		<g id="XMLID_2470_">
			<polygon id="XMLID_2471_" class="st1" points="36,10.3 31.7,10.3 31.7,6 29.5,6 29.5,10.3 25.1,10.3 25.1,12.5 29.5,12.5 
				29.5,16.9 31.7,16.9 31.7,12.5 36,12.5 			"/>
		</g>
		<g id="XMLID_2425_">
			<path id="XMLID_2427_" class="st1" d="M25.8,33.4c-0.1,0-0.1,0-0.2,0c-0.2-0.1-0.3-0.3-0.3-0.5v-5.4h5.4c0.2,0,0.4,0.1,0.5,0.3
				c0.1,0.2,0,0.4-0.1,0.6l-4.9,4.9C26,33.3,25.9,33.4,25.8,33.4z M26.3,28.5v3l3-3H26.3z"/>
		</g>
	</g>
	<g id="XMLID_40_">
		<path id="XMLID_41_" class="st1" d="M45.9,17.3l2.7,6.9h-1l-0.7-2.1h-2.9l-0.8,2.1h-0.9l2.7-6.9H45.9z M46.6,21.3l-1.1-3.2h0
			l-1.2,3.2H46.6z"/>
		<path id="XMLID_44_" class="st1" d="M51.6,17.3c1.1,0,1.9,0.3,2.4,0.8c0.6,0.5,0.9,1.4,0.9,2.5c0,0.6-0.1,1.1-0.2,1.5
			s-0.3,0.8-0.6,1.1c-0.3,0.3-0.6,0.5-1,0.7c-0.4,0.2-0.9,0.2-1.5,0.2h-2.4v-6.9H51.6z M51.7,23.4c0.1,0,0.2,0,0.4,0
			c0.2,0,0.3-0.1,0.5-0.1s0.3-0.1,0.5-0.3c0.2-0.1,0.3-0.3,0.5-0.5c0.1-0.2,0.2-0.4,0.3-0.7c0.1-0.3,0.1-0.7,0.1-1.1
			c0-0.4,0-0.8-0.1-1.1c-0.1-0.3-0.2-0.6-0.4-0.8c-0.2-0.2-0.4-0.4-0.7-0.5c-0.3-0.1-0.6-0.2-1.1-0.2h-1.5v5.3H51.7z"/>
		<path id="XMLID_47_" class="st1" d="M58.4,17.3c1.1,0,1.9,0.3,2.4,0.8c0.6,0.5,0.9,1.4,0.9,2.5c0,0.6-0.1,1.1-0.2,1.5
			s-0.3,0.8-0.6,1.1c-0.3,0.3-0.6,0.5-1,0.7c-0.4,0.2-0.9,0.2-1.5,0.2H56v-6.9H58.4z M58.5,23.4c0.1,0,0.2,0,0.4,0
			c0.2,0,0.3-0.1,0.5-0.1s0.3-0.1,0.5-0.3c0.2-0.1,0.3-0.3,0.5-0.5c0.1-0.2,0.2-0.4,0.3-0.7c0.1-0.3,0.1-0.7,0.1-1.1
			c0-0.4,0-0.8-0.1-1.1c-0.1-0.3-0.2-0.6-0.4-0.8c-0.2-0.2-0.4-0.4-0.7-0.5c-0.3-0.1-0.6-0.2-1.1-0.2h-1.5v5.3H58.5z"/>
		<path id="XMLID_50_" class="st1" d="M66.4,17.3l3.6,5.6h0v-5.6h0.9v6.9h-1l-3.6-5.5h0v5.5h-0.9v-6.9H66.4z"/>
		<path id="XMLID_52_" class="st1" d="M77.1,17.3V18h-3.8v2.2h3.6V21h-3.6v2.4h3.8v0.8h-4.8v-6.9H77.1z"/>
		<path id="XMLID_54_" class="st1" d="M83.5,24.1l-1.6-5.8h0l-1.6,5.8h-1l-1.8-6.9h0.9l1.3,5.7h0l1.5-5.7h1L84,23h0l1.4-5.7h0.9
			l-1.8,6.9H83.5z"/>
		<path id="XMLID_56_" class="st1" d="M92.8,17.3c0.7,0,1.2,0.2,1.6,0.5c0.4,0.4,0.5,0.9,0.5,1.5s-0.2,1.1-0.5,1.5
			c-0.4,0.4-0.9,0.5-1.6,0.5h-2.1v2.8h-0.9v-6.9H92.8z M92.5,20.6c0.5,0,0.9-0.1,1.1-0.3c0.2-0.2,0.4-0.5,0.4-0.9s-0.1-0.7-0.4-0.9
			C93.4,18.2,93,18,92.5,18h-1.8v2.5H92.5z"/>
		<path id="XMLID_59_" class="st1" d="M95.9,19.4c0.1-0.4,0.3-0.8,0.6-1.1c0.3-0.3,0.6-0.6,1-0.8c0.4-0.2,0.9-0.3,1.4-0.3
			c0.5,0,1,0.1,1.4,0.3c0.4,0.2,0.8,0.5,1,0.8c0.3,0.3,0.5,0.7,0.6,1.1c0.1,0.4,0.2,0.9,0.2,1.3c0,0.5-0.1,0.9-0.2,1.3
			c-0.1,0.4-0.3,0.8-0.6,1.1c-0.3,0.3-0.6,0.6-1,0.8s-0.9,0.3-1.4,0.3c-0.5,0-1-0.1-1.4-0.3s-0.8-0.5-1-0.8
			c-0.3-0.3-0.5-0.7-0.6-1.1s-0.2-0.9-0.2-1.3C95.7,20.2,95.7,19.8,95.9,19.4z M96.7,21.7c0.1,0.3,0.2,0.6,0.4,0.9
			c0.2,0.3,0.4,0.5,0.7,0.6c0.3,0.2,0.7,0.2,1.1,0.2s0.8-0.1,1.1-0.2c0.3-0.2,0.5-0.4,0.7-0.6c0.2-0.3,0.3-0.6,0.4-0.9
			c0.1-0.3,0.1-0.7,0.1-1c0-0.3,0-0.7-0.1-1c-0.1-0.3-0.2-0.6-0.4-0.9c-0.2-0.3-0.4-0.5-0.7-0.6s-0.7-0.2-1.1-0.2s-0.8,0.1-1.1,0.2
			c-0.3,0.2-0.5,0.4-0.7,0.6c-0.2,0.3-0.3,0.6-0.4,0.9c-0.1,0.3-0.1,0.7-0.1,1C96.6,21.1,96.6,21.4,96.7,21.7z"/>
		<path id="XMLID_62_" class="st1" d="M106.8,18.2c-0.3-0.2-0.7-0.3-1.2-0.3c-0.2,0-0.4,0-0.6,0.1c-0.2,0-0.4,0.1-0.5,0.2
			s-0.3,0.2-0.3,0.4c-0.1,0.2-0.1,0.3-0.1,0.6c0,0.2,0.1,0.4,0.2,0.5c0.1,0.1,0.3,0.2,0.5,0.3s0.4,0.2,0.7,0.2
			c0.3,0.1,0.5,0.1,0.8,0.2c0.3,0.1,0.5,0.1,0.8,0.2c0.3,0.1,0.5,0.2,0.7,0.4c0.2,0.1,0.4,0.3,0.5,0.6c0.1,0.2,0.2,0.5,0.2,0.8
			c0,0.4-0.1,0.7-0.2,0.9c-0.2,0.3-0.4,0.5-0.6,0.6c-0.3,0.2-0.5,0.3-0.9,0.4c-0.3,0.1-0.6,0.1-0.9,0.1c-0.4,0-0.7,0-1.1-0.1
			c-0.3-0.1-0.6-0.2-0.9-0.4s-0.5-0.4-0.6-0.7c-0.2-0.3-0.2-0.7-0.2-1.1h0.9c0,0.3,0.1,0.5,0.2,0.7s0.3,0.4,0.4,0.5
			c0.2,0.1,0.4,0.2,0.6,0.3s0.5,0.1,0.7,0.1c0.2,0,0.4,0,0.6-0.1c0.2,0,0.4-0.1,0.6-0.2s0.3-0.2,0.4-0.4c0.1-0.2,0.2-0.4,0.2-0.6
			c0-0.2-0.1-0.4-0.2-0.6c-0.1-0.1-0.3-0.3-0.5-0.4s-0.4-0.2-0.7-0.2c-0.3-0.1-0.5-0.1-0.8-0.2c-0.3-0.1-0.5-0.1-0.8-0.2
			c-0.3-0.1-0.5-0.2-0.7-0.3c-0.2-0.1-0.4-0.3-0.5-0.5c-0.1-0.2-0.2-0.5-0.2-0.8c0-0.3,0.1-0.6,0.2-0.9c0.1-0.3,0.3-0.5,0.6-0.6
			c0.2-0.2,0.5-0.3,0.8-0.4c0.3-0.1,0.6-0.1,0.9-0.1c0.4,0,0.7,0,1,0.1c0.3,0.1,0.6,0.2,0.8,0.4c0.2,0.2,0.4,0.4,0.5,0.7
			c0.1,0.3,0.2,0.6,0.2,1h-0.9C107.3,18.8,107.1,18.4,106.8,18.2z"/>
		<path id="XMLID_64_" class="st1" d="M108.8,18v-0.8h5.5V18H112v6.1h-0.9V18H108.8z"/>
	</g>
</g>
</svg>
