<?xml version="1.0" encoding="utf-8"?>
<!-- Generator: Adobe Illustrator 19.0.0, SVG Export Plug-In . SVG Version: 6.00 Build 0)  -->
<svg version="1.1" id="Layer_1" xmlns="http://www.w3.org/2000/svg" xmlns:xlink="http://www.w3.org/1999/xlink" x="0px" y="0px"
	 viewBox="0 0 58 58" style="enable-background:new 0 0 58 58;" xml:space="preserve">
<style type="text/css">
	.st0{fill:#FFFFFF;}
</style>
<g id="XMLID_1297_">
	<path id="XMLID_57_" class="st0" d="M29,58C13,58,0,45,0,29S13,0,29,0s29,13,29,29S45,58,29,58z M29,2.4C14.3,2.4,2.4,14.3,2.4,29
		S14.3,55.6,29,55.6S55.6,43.7,55.6,29S43.7,2.4,29,2.4z"/>
</g>
<g id="XMLID_1293_">
	<g id="XMLID_1295_">
		<path id="XMLID_56_" class="st0" d="M18.7,40.5c-0.3,0-0.6-0.1-0.9-0.4c-0.5-0.5-0.5-1.2,0-1.7l20.6-20.6c0.5-0.5,1.2-0.5,1.7,0
			s0.5,1.2,0,1.7L19.6,40.1C19.3,40.4,19,40.5,18.7,40.5z"/>
	</g>
	<g id="XMLID_1294_">
		<path id="XMLID_55_" class="st0" d="M39.3,40.5c-0.3,0-0.6-0.1-0.9-0.4L17.9,19.6c-0.5-0.5-0.5-1.2,0-1.7s1.2-0.5,1.7,0l20.6,20.6
			c0.5,0.5,0.5,1.2,0,1.7C39.9,40.4,39.6,40.5,39.3,40.5z"/>
	</g>
</g>
</svg>
