<?xml version="1.0" encoding="utf-8"?>
<!-- Generator: Adobe Illustrator 16.0.4, SVG Export Plug-In . SVG Version: 6.00 Build 0)  -->
<!DOCTYPE svg PUBLIC "-//W3C//DTD SVG 1.1//EN" "http://www.w3.org/Graphics/SVG/1.1/DTD/svg11.dtd">
<svg version="1.1" id="Layer_1" xmlns="http://www.w3.org/2000/svg" xmlns:xlink="http://www.w3.org/1999/xlink" x="0px" y="0px"
	 width="338px" height="55px" viewBox="0 0 338 55" enable-background="new 0 0 338 55" xml:space="preserve">
<g>
	<path fill="#FFFFFF" d="M47.997,0.535H27.964C13.072,0.535,1,12.607,1,27.5c0,14.892,12.072,26.965,26.964,26.965
		c14.894,0,26.965-12.073,26.965-26.965V7.468C54.929,3.639,51.825,0.535,47.997,0.535 M27.964,47.745
		c-11.18,0-20.244-9.064-20.244-20.245c0-11.182,9.064-20.245,20.244-20.245c0.837,0,1.662,0.051,2.473,0.149
		c10.015,1.22,17.772,9.752,17.772,20.096C48.209,38.681,39.146,47.745,27.964,47.745 M48.453,9.997
		c-1.649,0-2.986-1.337-2.986-2.986c0-1.648,1.337-2.985,2.986-2.985s2.986,1.337,2.986,2.985
		C51.439,8.66,50.103,9.997,48.453,9.997"/>
	<path fill="#FFFFFF" d="M27.965,40.399c-7.113,0-12.9-5.787-12.9-12.899c0-7.113,5.787-12.9,12.9-12.9
		c7.112,0,12.899,5.787,12.899,12.9C40.864,34.612,35.077,40.399,27.965,40.399 M27.965,16.134c-6.268,0-11.366,5.099-11.366,11.366
		c0,6.267,5.099,11.364,11.366,11.364c6.267,0,11.366-5.098,11.366-11.364C39.331,21.232,34.231,16.134,27.965,16.134
		 M27.871,38.958c-6.37,0-11.553-5.183-11.553-11.552c0-6.37,5.183-11.554,11.553-11.554c6.369,0,11.552,5.184,11.552,11.554
		C39.423,33.775,34.24,38.958,27.871,38.958 M27.965,18.263c-5.094,0-9.237,4.145-9.237,9.237s4.144,9.237,9.237,9.237
		c5.093,0,9.236-4.145,9.236-9.237S33.058,18.263,27.965,18.263"/>
	<path fill="#FFFFFF" d="M32.08,27.5c0,2.272-1.843,4.114-4.115,4.114c-2.273,0-4.115-1.842-4.115-4.114
		c0-2.273,1.842-4.115,4.115-4.115C30.237,23.385,32.08,25.227,32.08,27.5"/>
	<polygon fill="#FFFFFF" points="96.081,38.933 92.201,38.933 92.201,29.843 82.495,29.843 82.495,38.933 78.614,38.933 
		78.614,18.135 82.495,18.135 82.495,27.081 92.201,27.081 92.201,18.135 96.081,18.135 	"/>
	<path fill="#FFFFFF" d="M125.845,28.534c0,1.524-0.253,2.937-0.759,4.234c-0.506,1.3-1.216,2.424-2.133,3.374
		c-0.916,0.949-2.02,1.688-3.307,2.222c-1.289,0.532-2.716,0.799-4.281,0.799s-2.995-0.267-4.288-0.799
		c-1.293-0.533-2.4-1.272-3.321-2.222c-0.921-0.95-1.634-2.074-2.14-3.374c-0.506-1.298-0.759-2.71-0.759-4.234
		s0.253-2.937,0.759-4.236c0.506-1.299,1.219-2.423,2.14-3.373c0.921-0.949,2.028-1.689,3.321-2.222s2.723-0.798,4.288-0.798
		s2.992,0.269,4.281,0.806c1.287,0.537,2.391,1.277,3.307,2.221c0.917,0.945,1.627,2.067,2.133,3.366
		C125.592,25.598,125.845,27.01,125.845,28.534 M121.895,28.534c0-1.142-0.15-2.165-0.451-3.071
		c-0.302-0.906-0.733-1.675-1.296-2.308c-0.563-0.634-1.248-1.117-2.056-1.453c-0.806-0.335-1.715-0.503-2.727-0.503
		c-1.011,0-1.923,0.168-2.735,0.503c-0.811,0.336-1.501,0.819-2.067,1.453c-0.568,0.633-1.006,1.401-1.311,2.308
		c-0.306,0.906-0.458,1.93-0.458,3.071c0,1.141,0.152,2.164,0.458,3.069c0.305,0.907,0.742,1.674,1.311,2.302
		c0.566,0.629,1.257,1.11,2.067,1.445c0.812,0.336,1.725,0.504,2.735,0.504c1.012,0,1.921-0.168,2.727-0.504
		c0.808-0.335,1.492-0.816,2.056-1.445c0.562-0.628,0.994-1.395,1.296-2.302C121.744,30.698,121.895,29.675,121.895,28.534"/>
	<polygon fill="#FFFFFF" points="148.079,18.135 148.079,21.313 141.852,21.313 141.852,38.933 138,38.933 138,21.313 
		131.744,21.313 131.744,18.135 	"/>
	<path fill="#FFFFFF" d="M167.323,20.601c-0.088,0.167-0.216,0.251-0.382,0.251c-0.128,0-0.293-0.091-0.493-0.272
		c-0.201-0.183-0.475-0.385-0.818-0.605c-0.343-0.221-0.773-0.425-1.289-0.612c-0.515-0.187-1.15-0.279-1.907-0.279
		c-0.756,0-1.421,0.107-1.996,0.323c-0.573,0.218-1.056,0.513-1.443,0.886c-0.389,0.374-0.683,0.807-0.883,1.298
		c-0.202,0.492-0.303,1.008-0.303,1.549c0,0.708,0.149,1.294,0.448,1.756s0.693,0.855,1.183,1.18
		c0.491,0.324,1.048,0.598,1.671,0.818c0.621,0.221,1.261,0.44,1.918,0.657c0.656,0.216,1.296,0.454,1.92,0.715
		c0.622,0.261,1.178,0.588,1.668,0.981c0.489,0.393,0.885,0.877,1.184,1.452c0.298,0.575,0.448,1.291,0.448,2.146
		c0,0.876-0.149,1.698-0.448,2.471c-0.298,0.772-0.73,1.443-1.299,2.013c-0.568,0.571-1.263,1.021-2.085,1.351
		s-1.762,0.493-2.819,0.493c-1.371,0-2.55-0.242-3.539-0.729c-0.987-0.487-1.854-1.153-2.599-1.999l0.411-0.648
		c0.118-0.147,0.255-0.222,0.411-0.222c0.089,0,0.201,0.06,0.339,0.177c0.137,0.119,0.304,0.264,0.5,0.436
		c0.194,0.172,0.431,0.359,0.705,0.561c0.273,0.202,0.594,0.39,0.956,0.561c0.361,0.173,0.778,0.316,1.25,0.436
		c0.471,0.117,1.005,0.178,1.602,0.178c0.824,0,1.559-0.127,2.207-0.377c0.646-0.25,1.193-0.592,1.639-1.025
		c0.446-0.432,0.786-0.946,1.022-1.541c0.235-0.596,0.353-1.232,0.353-1.91c0-0.738-0.149-1.345-0.449-1.822
		c-0.299-0.477-0.693-0.875-1.184-1.194s-1.047-0.589-1.669-0.804c-0.622-0.217-1.262-0.429-1.919-0.635
		c-0.656-0.207-1.296-0.438-1.918-0.693s-1.179-0.582-1.669-0.981c-0.491-0.397-0.885-0.894-1.184-1.489
		c-0.3-0.595-0.448-1.34-0.448-2.234c0-0.698,0.132-1.372,0.396-2.021c0.266-0.648,0.652-1.221,1.161-1.718
		c0.51-0.497,1.141-0.895,1.891-1.195c0.749-0.3,1.604-0.449,2.565-0.449c1.078,0,2.045,0.172,2.904,0.516
		c0.856,0.344,1.638,0.87,2.344,1.578L167.323,20.601z"/>
	<path fill="#FFFFFF" d="M180.42,30.527v8.408h-1.498V18.063h5.36c2.437,0,4.274,0.536,5.513,1.608
		c1.239,1.071,1.858,2.601,1.858,4.587c0,0.915-0.169,1.756-0.507,2.522c-0.338,0.768-0.825,1.429-1.461,1.984
		c-0.637,0.556-1.409,0.987-2.32,1.298c-0.91,0.309-1.938,0.464-3.083,0.464H180.42z M180.42,29.318h3.862
		c0.919,0,1.742-0.128,2.466-0.384c0.725-0.255,1.338-0.609,1.844-1.062c0.504-0.451,0.891-0.985,1.159-1.6
		c0.269-0.615,0.404-1.286,0.404-2.014c0-1.603-0.492-2.836-1.476-3.702c-0.984-0.865-2.451-1.298-4.397-1.298h-3.862V29.318z"/>
	<path fill="#FFFFFF" d="M220.313,28.492c0,1.613-0.24,3.075-0.72,4.388c-0.479,1.313-1.154,2.435-2.025,3.363
		c-0.872,0.93-1.914,1.648-3.128,2.154c-1.214,0.507-2.56,0.76-4.038,0.76c-1.458,0-2.795-0.253-4.008-0.76
		c-1.215-0.506-2.258-1.225-3.129-2.154c-0.87-0.929-1.549-2.05-2.032-3.363c-0.485-1.312-0.728-2.774-0.728-4.388
		c0-1.603,0.242-3.061,0.728-4.374c0.483-1.312,1.162-2.433,2.032-3.362c0.871-0.93,1.914-1.649,3.129-2.16
		c1.213-0.513,2.55-0.769,4.008-0.769c1.479,0,2.824,0.253,4.038,0.761c1.214,0.507,2.256,1.227,3.128,2.16
		c0.871,0.935,1.546,2.059,2.025,3.37C220.073,25.432,220.313,26.89,220.313,28.492 M218.758,28.492
		c0-1.455-0.201-2.763-0.603-3.924c-0.401-1.16-0.967-2.144-1.696-2.95c-0.729-0.806-1.607-1.423-2.636-1.851
		c-1.026-0.428-2.168-0.643-3.421-0.643c-1.232,0-2.361,0.215-3.385,0.643c-1.022,0.428-1.903,1.045-2.643,1.851
		c-0.74,0.807-1.312,1.79-1.718,2.95c-0.407,1.161-0.61,2.469-0.61,3.924c0,1.466,0.203,2.776,0.61,3.931
		c0.406,1.156,0.978,2.137,1.718,2.943c0.739,0.807,1.62,1.421,2.643,1.844c1.023,0.424,2.152,0.635,3.385,0.635
		c1.253,0,2.395-0.211,3.421-0.635c1.028-0.423,1.907-1.037,2.636-1.844c0.729-0.807,1.295-1.787,1.696-2.943
		C218.557,31.269,218.758,29.958,218.758,28.492"/>
	<polygon fill="#FFFFFF" points="242.881,18.063 242.881,19.348 235.584,19.348 235.584,38.936 234.087,38.936 234.087,19.348 
		226.745,19.348 226.745,18.063 	"/>
	<polygon fill="#FFFFFF" points="265.918,18.063 265.918,19.348 258.621,19.348 258.621,38.936 257.125,38.936 257.125,19.348 
		249.783,19.348 249.783,18.063 	"/>
	<rect x="275.932" y="18.064" fill="#FFFFFF" width="1.513" height="20.871"/>
	<path fill="#FFFFFF" d="M291.1,18.115c0.076,0.035,0.16,0.111,0.25,0.229l13.447,18.084c-0.027-0.295-0.043-0.58-0.043-0.854
		v-17.51h1.321v20.873h-0.719c-0.226,0-0.407-0.099-0.543-0.296l-13.508-18.113c0.028,0.295,0.044,0.575,0.044,0.841v17.568h-1.307
		V18.063h0.733C290.914,18.063,291.021,18.081,291.1,18.115"/>
	<path fill="#FFFFFF" d="M327.042,37.947c0.715,0,1.366-0.036,1.953-0.11c0.588-0.073,1.133-0.185,1.637-0.332
		c0.505-0.147,0.984-0.326,1.438-0.538c0.455-0.211,0.914-0.45,1.373-0.716v-5.62h-3.992c-0.108,0-0.199-0.034-0.273-0.104
		c-0.072-0.067-0.109-0.146-0.109-0.235v-0.826h5.742v7.42c-0.52,0.363-1.058,0.688-1.617,0.973
		c-0.557,0.286-1.153,0.524-1.791,0.717c-0.635,0.19-1.32,0.338-2.055,0.441c-0.733,0.104-1.537,0.155-2.408,0.155
		c-1.498,0-2.865-0.253-4.104-0.759c-1.238-0.508-2.301-1.226-3.186-2.154c-0.887-0.93-1.574-2.053-2.063-3.371
		c-0.489-1.317-0.733-2.783-0.733-4.395c0-1.613,0.244-3.076,0.733-4.39c0.489-1.312,1.185-2.433,2.085-3.362
		s1.994-1.647,3.282-2.153c1.286-0.507,2.728-0.76,4.323-0.76c0.793,0,1.524,0.054,2.195,0.162c0.67,0.108,1.295,0.268,1.873,0.479
		c0.576,0.211,1.114,0.472,1.614,0.781c0.499,0.31,0.978,0.666,1.438,1.069l-0.396,0.649c-0.088,0.147-0.21,0.221-0.367,0.221
		c-0.088,0-0.171-0.019-0.25-0.059c-0.146-0.06-0.359-0.196-0.638-0.413c-0.279-0.216-0.656-0.442-1.131-0.678
		c-0.476-0.236-1.07-0.448-1.784-0.636c-0.715-0.186-1.581-0.279-2.6-0.279c-1.351,0-2.568,0.216-3.654,0.648
		c-1.087,0.434-2.014,1.053-2.783,1.859c-0.77,0.806-1.361,1.79-1.777,2.95s-0.623,2.463-0.623,3.909
		c0,1.475,0.211,2.797,0.631,3.967c0.42,1.171,1.011,2.16,1.77,2.973c0.758,0.811,1.669,1.434,2.73,1.866
		C324.588,37.731,325.76,37.947,327.042,37.947"/>
</g>
</svg>
