<?xml version="1.0" encoding="utf-8"?>
<!-- Generator: Adobe Illustrator 19.0.0, SVG Export Plug-In . SVG Version: 6.00 Build 0)  -->
<svg version="1.1" id="Layer_1" xmlns="http://www.w3.org/2000/svg" xmlns:xlink="http://www.w3.org/1999/xlink" x="0px" y="0px"
	 viewBox="0 0 256.7 130.9" style="enable-background:new 0 0 256.7 130.9;" xml:space="preserve">
<style type="text/css">
	.st0{fill:#FFFFFF;}
</style>
<g id="XMLID_27_">
	<g id="XMLID_3338_">
		<g id="XMLID_3339_">
			<path id="XMLID_3363_" class="st0" d="M17.9,129.6h-3.9v-9.1H4.4v9.1H0.5v-20.8h3.9v8.9h9.7v-8.9h3.9V129.6z"/>
			<path id="XMLID_3360_" class="st0" d="M47.7,119.2c0,1.5-0.3,2.9-0.8,4.2c-0.5,1.3-1.2,2.4-2.1,3.4c-0.9,0.9-2,1.7-3.3,2.2
				c-1.3,0.5-2.7,0.8-4.3,0.8c-1.6,0-3-0.3-4.3-0.8c-1.3-0.5-2.4-1.3-3.3-2.2c-0.9-0.9-1.6-2.1-2.1-3.4c-0.5-1.3-0.8-2.7-0.8-4.2
				s0.3-2.9,0.8-4.2c0.5-1.3,1.2-2.4,2.1-3.4c0.9-0.9,2-1.7,3.3-2.2c1.3-0.5,2.7-0.8,4.3-0.8c1.6,0,3,0.3,4.3,0.8
				c1.3,0.5,2.4,1.3,3.3,2.2c0.9,0.9,1.6,2.1,2.1,3.4C47.5,116.2,47.7,117.7,47.7,119.2z M43.8,119.2c0-1.1-0.2-2.2-0.5-3.1
				s-0.7-1.7-1.3-2.3c-0.6-0.6-1.2-1.1-2.1-1.5c-0.8-0.3-1.7-0.5-2.7-0.5c-1,0-1.9,0.2-2.7,0.5c-0.8,0.3-1.5,0.8-2.1,1.5
				c-0.6,0.6-1,1.4-1.3,2.3s-0.5,1.9-0.5,3.1s0.2,2.2,0.5,3.1c0.3,0.9,0.7,1.7,1.3,2.3c0.6,0.6,1.3,1.1,2.1,1.4
				c0.8,0.3,1.7,0.5,2.7,0.5c1,0,1.9-0.2,2.7-0.5c0.8-0.3,1.5-0.8,2.1-1.4c0.6-0.6,1-1.4,1.3-2.3C43.6,121.3,43.8,120.3,43.8,119.2z
				"/>
			<path id="XMLID_3358_" class="st0" d="M69.9,108.8v3.2h-6.2v17.6h-3.9V112h-6.3v-3.2H69.9z"/>
			<path id="XMLID_3356_" class="st0" d="M89.2,111.2c-0.1,0.2-0.2,0.3-0.4,0.3c-0.1,0-0.3-0.1-0.5-0.3c-0.2-0.2-0.5-0.4-0.8-0.6
				c-0.3-0.2-0.8-0.4-1.3-0.6c-0.5-0.2-1.2-0.3-1.9-0.3s-1.4,0.1-2,0.3c-0.6,0.2-1.1,0.5-1.4,0.9c-0.4,0.4-0.7,0.8-0.9,1.3
				c-0.2,0.5-0.3,1-0.3,1.5c0,0.7,0.1,1.3,0.4,1.8s0.7,0.9,1.2,1.2c0.5,0.3,1,0.6,1.7,0.8c0.6,0.2,1.3,0.4,1.9,0.7s1.3,0.5,1.9,0.7
				c0.6,0.3,1.2,0.6,1.7,1c0.5,0.4,0.9,0.9,1.2,1.5c0.3,0.6,0.4,1.3,0.4,2.1c0,0.9-0.1,1.7-0.4,2.5c-0.3,0.8-0.7,1.4-1.3,2
				c-0.6,0.6-1.3,1-2.1,1.3s-1.8,0.5-2.8,0.5c-1.4,0-2.6-0.2-3.5-0.7c-1-0.5-1.9-1.2-2.6-2l0.4-0.6c0.1-0.1,0.3-0.2,0.4-0.2
				c0.1,0,0.2,0.1,0.3,0.2c0.1,0.1,0.3,0.3,0.5,0.4c0.2,0.2,0.4,0.4,0.7,0.6c0.3,0.2,0.6,0.4,1,0.6c0.4,0.2,0.8,0.3,1.3,0.4
				c0.5,0.1,1,0.2,1.6,0.2c0.8,0,1.6-0.1,2.2-0.4c0.6-0.3,1.2-0.6,1.6-1c0.4-0.4,0.8-0.9,1-1.5c0.2-0.6,0.4-1.2,0.4-1.9
				c0-0.7-0.2-1.3-0.4-1.8c-0.3-0.5-0.7-0.9-1.2-1.2c-0.5-0.3-1-0.6-1.7-0.8c-0.6-0.2-1.3-0.4-1.9-0.6c-0.7-0.2-1.3-0.4-1.9-0.7
				c-0.6-0.3-1.2-0.6-1.7-1c-0.5-0.4-0.9-0.9-1.2-1.5c-0.3-0.6-0.4-1.3-0.4-2.2c0-0.7,0.1-1.4,0.4-2c0.3-0.6,0.7-1.2,1.2-1.7
				c0.5-0.5,1.1-0.9,1.9-1.2c0.7-0.3,1.6-0.4,2.6-0.4c1.1,0,2,0.2,2.9,0.5c0.9,0.3,1.6,0.9,2.3,1.6L89.2,111.2z"/>
			<path id="XMLID_3353_" class="st0" d="M102.3,121.2v8.4h-1.5v-20.9h5.4c2.4,0,4.3,0.5,5.5,1.6c1.2,1.1,1.9,2.6,1.9,4.6
				c0,0.9-0.2,1.8-0.5,2.5c-0.3,0.8-0.8,1.4-1.5,2c-0.6,0.6-1.4,1-2.3,1.3c-0.9,0.3-1.9,0.5-3.1,0.5H102.3z M102.3,120h3.9
				c0.9,0,1.7-0.1,2.5-0.4s1.3-0.6,1.8-1.1c0.5-0.5,0.9-1,1.2-1.6c0.3-0.6,0.4-1.3,0.4-2c0-1.6-0.5-2.8-1.5-3.7
				c-1-0.9-2.5-1.3-4.4-1.3h-3.9V120z"/>
			<path id="XMLID_3350_" class="st0" d="M142.2,119.1c0,1.6-0.2,3.1-0.7,4.4s-1.2,2.4-2,3.4c-0.9,0.9-1.9,1.6-3.1,2.2
				c-1.2,0.5-2.6,0.8-4,0.8c-1.5,0-2.8-0.3-4-0.8c-1.2-0.5-2.3-1.2-3.1-2.2c-0.9-0.9-1.5-2-2-3.4c-0.5-1.3-0.7-2.8-0.7-4.4
				c0-1.6,0.2-3.1,0.7-4.4c0.5-1.3,1.2-2.4,2-3.4c0.9-0.9,1.9-1.6,3.1-2.2c1.2-0.5,2.5-0.8,4-0.8c1.5,0,2.8,0.3,4,0.8
				c1.2,0.5,2.3,1.2,3.1,2.2c0.9,0.9,1.5,2.1,2,3.4C141.9,116.1,142.2,117.5,142.2,119.1z M140.6,119.1c0-1.5-0.2-2.8-0.6-3.9
				c-0.4-1.2-1-2.1-1.7-2.9c-0.7-0.8-1.6-1.4-2.6-1.9c-1-0.4-2.2-0.6-3.4-0.6c-1.2,0-2.4,0.2-3.4,0.6c-1,0.4-1.9,1-2.6,1.9
				c-0.7,0.8-1.3,1.8-1.7,2.9c-0.4,1.2-0.6,2.5-0.6,3.9c0,1.5,0.2,2.8,0.6,3.9c0.4,1.2,1,2.1,1.7,2.9c0.7,0.8,1.6,1.4,2.6,1.8
				c1,0.4,2.2,0.6,3.4,0.6c1.3,0,2.4-0.2,3.4-0.6s1.9-1,2.6-1.8c0.7-0.8,1.3-1.8,1.7-2.9C140.4,121.9,140.6,120.6,140.6,119.1z"/>
			<path id="XMLID_3348_" class="st0" d="M164.7,108.7v1.3h-7.3v19.6h-1.5V110h-7.3v-1.3H164.7z"/>
			<path id="XMLID_3346_" class="st0" d="M187.8,108.7v1.3h-7.3v19.6H179V110h-7.3v-1.3H187.8z"/>
			<path id="XMLID_3344_" class="st0" d="M199.3,129.6h-1.5v-20.9h1.5V129.6z"/>
			<path id="XMLID_3342_" class="st0" d="M213,108.8c0.1,0,0.2,0.1,0.2,0.2l13.4,18.1c0-0.3,0-0.6,0-0.9v-17.5h1.3v20.9h-0.7
				c-0.2,0-0.4-0.1-0.5-0.3l-13.5-18.1c0,0.3,0,0.6,0,0.8v17.6h-1.3v-20.9h0.7C212.8,108.7,212.9,108.7,213,108.8z"/>
			<path id="XMLID_3340_" class="st0" d="M248.9,128.6c0.7,0,1.4,0,2-0.1c0.6-0.1,1.1-0.2,1.6-0.3c0.5-0.1,1-0.3,1.4-0.5
				s0.9-0.4,1.4-0.7v-5.6h-4c-0.1,0-0.2,0-0.3-0.1c-0.1-0.1-0.1-0.1-0.1-0.2v-0.8h5.7v7.4c-0.5,0.4-1.1,0.7-1.6,1
				c-0.6,0.3-1.2,0.5-1.8,0.7c-0.6,0.2-1.3,0.3-2.1,0.4c-0.7,0.1-1.5,0.2-2.4,0.2c-1.5,0-2.9-0.3-4.1-0.8c-1.2-0.5-2.3-1.2-3.2-2.2
				c-0.9-0.9-1.6-2.1-2.1-3.4c-0.5-1.3-0.7-2.8-0.7-4.4s0.2-3.1,0.7-4.4c0.5-1.3,1.2-2.4,2.1-3.4c0.9-0.9,2-1.6,3.3-2.2
				c1.3-0.5,2.7-0.8,4.3-0.8c0.8,0,1.5,0.1,2.2,0.2c0.7,0.1,1.3,0.3,1.9,0.5c0.6,0.2,1.1,0.5,1.6,0.8c0.5,0.3,1,0.7,1.4,1.1
				l-0.4,0.6c-0.1,0.1-0.2,0.2-0.4,0.2c-0.1,0-0.2,0-0.2-0.1c-0.1-0.1-0.4-0.2-0.6-0.4s-0.7-0.4-1.1-0.7c-0.5-0.2-1.1-0.4-1.8-0.6
				c-0.7-0.2-1.6-0.3-2.6-0.3c-1.4,0-2.6,0.2-3.7,0.6c-1.1,0.4-2,1.1-2.8,1.9c-0.8,0.8-1.4,1.8-1.8,2.9c-0.4,1.2-0.6,2.5-0.6,3.9
				c0,1.5,0.2,2.8,0.6,4c0.4,1.2,1,2.2,1.8,3c0.8,0.8,1.7,1.4,2.7,1.9S247.6,128.6,248.9,128.6z"/>
		</g>
	</g>
	<g id="XMLID_3365_">
		<path id="XMLID_3379_" class="st0" d="M158.2,1.1h-29.6c-22,0-39.8,17.8-39.8,39.8c0,22,17.8,39.8,39.8,39.8s39.8-17.8,39.8-39.8
			V11.3C168.4,5.7,163.8,1.1,158.2,1.1z M128.6,70.9c-16.5,0-29.9-13.4-29.9-29.9S112.1,11,128.6,11c1.2,0,2.5,0.1,3.7,0.2
			c14.8,1.8,26.3,14.4,26.3,29.7C158.5,57.5,145.1,70.9,128.6,70.9z M158.8,15.1c-2.4,0-4.4-2-4.4-4.4c0-2.4,2-4.4,4.4-4.4
			c2.4,0,4.4,2,4.4,4.4C163.3,13.1,161.3,15.1,158.8,15.1z"/>
		<g id="XMLID_3366_">
			<g id="XMLID_3369_">
				<g id="XMLID_3370_">
					<path id="XMLID_3376_" class="st0" d="M128.6,58.9c-9.9,0-17.9-8-17.9-17.9s8-17.9,17.9-17.9c9.9,0,17.9,8,17.9,17.9
						S138.5,58.9,128.6,58.9z M128.6,26.2c-8.1,0-14.8,6.6-14.8,14.8s6.6,14.8,14.8,14.8s14.8-6.6,14.8-14.8S136.7,26.2,128.6,26.2z
						"/>
					<path id="XMLID_3371_" class="st0" d="M128.6,60c-10.5,0-19.1-8.5-19.1-19.1s8.5-19.1,19.1-19.1s19.1,8.5,19.1,19.1
						S139.1,60,128.6,60z M128.6,24.2c-9.3,0-16.8,7.5-16.8,16.8s7.5,16.8,16.8,16.8s16.8-7.5,16.8-16.8S137.8,24.2,128.6,24.2z
						 M128.6,56.9c-8.8,0-15.9-7.1-15.9-15.9S119.8,25,128.6,25s15.9,7.1,15.9,15.9S137.4,56.9,128.6,56.9z M128.6,27.3
						c-7.5,0-13.6,6.1-13.6,13.6s6.1,13.6,13.6,13.6s13.6-6.1,13.6-13.6S136.1,27.3,128.6,27.3z"/>
				</g>
			</g>
			<g id="XMLID_3367_">
				<circle id="XMLID_3368_" class="st0" cx="128.6" cy="40.9" r="6.1"/>
			</g>
		</g>
	</g>
</g>
</svg>
