<?xml version="1.0" encoding="utf-8"?>
<!-- Generator: Adobe Illustrator 19.0.0, SVG Export Plug-In . SVG Version: 6.00 Build 0)  -->
<svg version="1.1" id="Layer_1" xmlns="http://www.w3.org/2000/svg" xmlns:xlink="http://www.w3.org/1999/xlink" x="0px" y="0px"
	 viewBox="-204 328.5 185.4 185.4" style="enable-background:new -204 328.5 185.4 185.4;" xml:space="preserve">
<style type="text/css">
	.st0{fill:#FFFFFF;}
</style>
<g id="XMLID_452_">
	<path id="XMLID_542_" class="st0" d="M-47.1,334.8h-64.2c-47.7,0-86.4,38.7-86.4,86.4s38.7,86.4,86.4,86.4s86.4-38.7,86.4-86.4V357
		C-24.9,344.7-34.8,334.8-47.1,334.8z M-111.3,486.1c-35.8,0-64.9-29.1-64.9-64.9s29.1-64.9,64.9-64.9c2.7,0,5.3,0.2,7.9,0.5
		c32.1,3.9,57,31.3,57,64.4C-46.4,457.1-75.5,486.1-111.3,486.1z M-45.6,365.1c-5.3,0-9.6-4.3-9.6-9.6c0-5.3,4.3-9.6,9.6-9.6
		s9.6,4.3,9.6,9.6C-36.1,360.8-40.3,365.1-45.6,365.1z"/>
	<g id="XMLID_453_">
		<g id="XMLID_525_">
			<g id="XMLID_533_">
				<path id="XMLID_539_" class="st0" d="M-111.3,460.1c-21.4,0-38.9-17.4-38.9-38.9c0-21.4,17.4-38.9,38.9-38.9
					s38.9,17.4,38.9,38.9C-72.4,442.7-89.9,460.1-111.3,460.1z M-111.3,389.1c-17.7,0-32.1,14.4-32.1,32.1
					c0,17.7,14.4,32.1,32.1,32.1s32.1-14.4,32.1-32.1C-79.2,403.5-93.6,389.1-111.3,389.1z"/>
				<path id="XMLID_534_" class="st0" d="M-111.3,462.6c-22.8,0-41.4-18.6-41.4-41.4c0-22.8,18.6-41.4,41.4-41.4S-70,398.4-70,421.2
					C-70,444-88.5,462.6-111.3,462.6z M-111.3,384.8c-20.1,0-36.4,16.3-36.4,36.4s16.3,36.4,36.4,36.4s36.4-16.3,36.4-36.4
					S-91.2,384.8-111.3,384.8z M-111.3,455.7c-19,0-34.5-15.5-34.5-34.5c0-19,15.5-34.5,34.5-34.5s34.5,15.5,34.5,34.5
					C-76.8,440.2-92.3,455.7-111.3,455.7z M-111.3,391.6c-16.3,0-29.6,13.3-29.6,29.6c0,16.3,13.3,29.6,29.6,29.6
					s29.6-13.3,29.6-29.6C-81.7,404.9-95,391.6-111.3,391.6z"/>
			</g>
		</g>
		<g id="XMLID_454_">
			<circle id="XMLID_524_" class="st0" cx="-111.3" cy="421.2" r="13.2"/>
		</g>
	</g>
</g>
</svg>
