<?xml version="1.0" encoding="utf-8"?>
<!-- Generator: Adobe Illustrator 16.0.4, SVG Export Plug-In . SVG Version: 6.00 Build 0)  -->
<!DOCTYPE svg PUBLIC "-//W3C//DTD SVG 1.1//EN" "http://www.w3.org/Graphics/SVG/1.1/DTD/svg11.dtd">
<svg version="1.1" id="Layer_1" xmlns="http://www.w3.org/2000/svg" xmlns:xlink="http://www.w3.org/1999/xlink" x="0px" y="0px"
	 width="52.159px" height="52.159px" viewBox="0 0 52.159 52.159" enable-background="new 0 0 52.159 52.159" xml:space="preserve">
<g>
	<g>
		<defs>
			<rect id="SVGID_1_" x="1.2" y="1.195" width="49.76" height="49.77"/>
		</defs>
		<clipPath id="SVGID_2_">
			<use xlink:href="#SVGID_1_"  overflow="visible"/>
		</clipPath>
		<g clip-path="url(#SVGID_2_)">
			<path fill="#FFFFFF" d="M24.163,47.127c-6.134,0-11.901-2.389-16.238-6.727c-8.954-8.954-8.954-23.522,0-32.477
				c4.337-4.337,10.104-6.726,16.238-6.726s11.901,2.388,16.238,6.726c8.954,8.954,8.954,23.522,0,32.477
				C36.064,44.739,30.297,47.127,24.163,47.127z M24.163,5.199c-5.065,0-9.828,1.972-13.41,5.554c-7.394,7.395-7.394,19.426,0,26.82
				c3.582,3.582,8.344,5.555,13.41,5.555s9.828-1.973,13.41-5.555c7.394-7.395,7.394-19.426,0-26.82
				C33.991,7.171,29.229,5.199,24.163,5.199z"/>
		</g>
		<g clip-path="url(#SVGID_2_)">
			
				<rect x="37.781" y="42.673" transform="matrix(0.7071 0.7071 -0.7071 0.7071 44.6729 -18.5041)" fill="#FFFFFF" width="13.784" height="4"/>
		</g>
	</g>
</g>
</svg>
