<?xml version="1.0" encoding="utf-8"?>
<!-- Generator: Adobe Illustrator 19.0.0, SVG Export Plug-In . SVG Version: 6.00 Build 0)  -->
<svg version="1.1" id="Layer_1" xmlns="http://www.w3.org/2000/svg" xmlns:xlink="http://www.w3.org/1999/xlink" x="0px" y="0px"
	 viewBox="0 0 219.2 144.7" style="enable-background:new 0 0 219.2 144.7;" xml:space="preserve">
<style type="text/css">
	.st0{fill:#303030;}
</style>
<g id="XMLID_2300_">
	<polygon id="XMLID_2302_" class="st0" points="108,86.4 108.2,86.4 108.1,86.3 	"/>
	<path id="XMLID_2301_" class="st0" d="M178,61.2c-4.5,0-8.8,0.9-12.9,2.4c-2.3-34-29.3-60.8-62.4-60.8c-30,0-55,22.1-61.1,51.6
		C19.8,55.9,2.7,74.8,2.7,98c0,24.2,18.8,43.9,41.9,43.9c2,0,3.9,0.3,5.7,0h45.5c1.7,0,3.1-1.4,3.1-3.1V96.7L84.6,113
		c-1.8,2-4.2,3-6.7,3c-2,0-4.1-0.7-5.7-2.1c-3.9-3.2-4-9.4-0.7-13.2l29.9-34c1.7-1.9,4.2-3,6.7-3s5,1.1,6.7,3l30,34.1
		c2.9,3.3,3.3,8.2,0.7,11.6c-3.6,4.6-10.2,4.6-13.9,0.5l-14.4-16.4v42.2c0,1.7,1.4,3.1,3.1,3.1h55.2v-0.1c0.8,0.1,1.6,0.1,2.5,0.1
		c21.3,0,38.6-18.1,38.6-40.4C216.5,79.2,199.3,61.2,178,61.2z"/>
</g>
</svg>
