<?xml version="1.0" encoding="utf-8"?>
<!-- Generator: Adobe Illustrator 19.0.0, SVG Export Plug-In . SVG Version: 6.00 Build 0)  -->
<svg version="1.1" id="Layer_1" xmlns="http://www.w3.org/2000/svg" xmlns:xlink="http://www.w3.org/1999/xlink" x="0px" y="0px"
	 viewBox="0 0 59.2 61" style="enable-background:new 0 0 59.2 61;" xml:space="preserve">
<style type="text/css">
	.st0{fill:#303030;}
</style>
<g id="XMLID_2192_">
	<g id="XMLID_2196_">
		<path id="XMLID_2197_" class="st0" d="M29.6,59.5c-16,0-29-13-29-29s13-29,29-29s29,13,29,29S45.6,59.5,29.6,59.5z M29.6,4.2
			C15.1,4.2,3.3,16,3.3,30.5s11.8,26.3,26.3,26.3S55.9,45,55.9,30.5S44.1,4.2,29.6,4.2z"/>
	</g>
	<path id="XMLID_2193_" class="st0" d="M10.9,50.9c4.3-5.6,11-9.3,18.7-9.3s14.4,3.7,18.7,9.3c5.5-5.1,9-12.3,9-20.4
		c0-15.3-12.4-27.7-27.7-27.7S1.9,15.2,1.9,30.5C1.9,38.6,5.4,45.8,10.9,50.9z M29.6,14.3c5.9,0,10.8,4.8,10.8,10.8
		c0,5.9-4.8,10.8-10.8,10.8S18.8,31,18.8,25.1C18.8,19.1,23.7,14.3,29.6,14.3z"/>
</g>
</svg>
